<?xml version="1.0" encoding="utf-8"?>
<!-- Generator: Adobe Illustrator 16.0.0, SVG Export Plug-In . SVG Version: 6.00 Build 0)  -->
<!DOCTYPE svg PUBLIC "-//W3C//DTD SVG 1.1//EN" "http://www.w3.org/Graphics/SVG/1.1/DTD/svg11.dtd">
<svg version="1.1" id="Capa_1" xmlns="http://www.w3.org/2000/svg" xmlns:xlink="http://www.w3.org/1999/xlink" x="0px" y="0px"
	 width="1280.001px" height="1279.966px" viewBox="319.999 0.018 1280.001 1279.966"
	 enable-background="new 319.999 0.018 1280.001 1279.966" xml:space="preserve">
<path fill="#7FABFA" d="M828.36,892.369l-341.327,341.324c-33.369,33.279-87.375,33.279-120.744,0
	c-7.275-7.324-13.132-15.932-17.28-25.387c-14.709-32.276-7.82-70.293,17.28-95.357l341.327-341.325l78.078,78.078L828.36,892.369z"
	/>
<path fill="#E3E7F2" d="M785.694,849.702l-341.325,341.327c-16.015,16.002-37.734,24.982-60.371,24.96
	c-12.08,0.002-24.017-2.618-34.987-7.68c-14.709-32.277-7.82-70.294,17.28-95.358l106.665-106.665l75.519-75.518l159.144-159.145
	L785.694,849.702z"/>
<path fill="#A4C2F7" d="M1578.636,533.338c-0.072,282.733-229.255,511.915-511.988,511.987c-10.88,0-21.547-0.427-31.999-1.067
	c-269.799-16.862-479.986-240.594-479.986-510.92c0-270.327,210.188-494.059,479.986-510.921c10.452-0.64,21.119-1.067,31.999-1.067
	C1349.381,21.422,1578.563,250.604,1578.636,533.338z"/>
<ellipse fill="#E3E7F2" cx="1034.648" cy="533.337" rx="479.988" ry="510.92"/>
<path fill="#A4C2F7" d="M1493.305,533.338c-0.237,235.536-191.118,426.42-426.657,426.657c-10.88,0-21.547-0.428-31.999-1.28
	C812.062,942.021,639.98,756.553,639.98,533.338s172.08-408.684,394.668-425.378c10.452-0.855,21.119-1.28,31.999-1.28
	C1302.185,106.917,1493.067,297.798,1493.305,533.338z"/>
<linearGradient id="SVGID_1_" gradientUnits="userSpaceOnUse" x1="-49.8906" y1="628.6636" x2="-49.1672" y2="629.3348" gradientTransform="matrix(789.3148 0 0 850.7535 40128.6758 -534589.5625)">
	<stop  offset="0" style="stop-color:#D3DFF2"/>
	<stop  offset="0.1717" style="stop-color:#D3DFF2"/>
	<stop  offset="0.2" style="stop-color:#D3DFF2"/>
	<stop  offset="0.2002" style="stop-color:#DAE2F2"/>
	<stop  offset="0.2007" style="stop-color:#EBEAF2"/>
	<stop  offset="0.2014" style="stop-color:#F6EFF2"/>
	<stop  offset="0.2023" style="stop-color:#FDF2F2"/>
	<stop  offset="0.205" style="stop-color:#FFF3F2"/>
	<stop  offset="0.2522" style="stop-color:#FFF3F2"/>
	<stop  offset="0.26" style="stop-color:#FFF3F2"/>
	<stop  offset="0.26" style="stop-color:#D3DFF2"/>
	<stop  offset="0.3974" style="stop-color:#D3DFF2"/>
	<stop  offset="0.42" style="stop-color:#D3DFF2"/>
	<stop  offset="0.4202" style="stop-color:#DAE2F2"/>
	<stop  offset="0.4207" style="stop-color:#EBEAF2"/>
	<stop  offset="0.4214" style="stop-color:#F6EFF2"/>
	<stop  offset="0.4223" style="stop-color:#FDF2F2"/>
	<stop  offset="0.425" style="stop-color:#FFF3F2"/>
	<stop  offset="0.4894" style="stop-color:#FFF3F2"/>
	<stop  offset="0.5" style="stop-color:#FFF3F2"/>
	<stop  offset="0.5" style="stop-color:#F8F0F2"/>
	<stop  offset="0.5001" style="stop-color:#E7E8F2"/>
	<stop  offset="0.5003" style="stop-color:#DCE3F2"/>
	<stop  offset="0.5005" style="stop-color:#D5E0F2"/>
	<stop  offset="0.501" style="stop-color:#D3DFF2"/>
	<stop  offset="0.7062" style="stop-color:#D3DFF2"/>
	<stop  offset="0.74" style="stop-color:#D3DFF2"/>
	<stop  offset="0.741" style="stop-color:#FFF3F2"/>
	<stop  offset="0.8346" style="stop-color:#FFF3F2"/>
	<stop  offset="0.85" style="stop-color:#FFF3F2"/>
	<stop  offset="0.851" style="stop-color:#D3DFF2"/>
</linearGradient>
<ellipse fill="url(#SVGID_1_)" cx="1034.648" cy="533.337" rx="394.658" ry="425.377"/>
<rect x="556.78" y="1037.708" transform="matrix(0.7071 -0.7071 0.7071 0.7071 -576.3707 744.262)" fill="#D4E1F4" width="106.877" height="60.328"/>
<rect x="496.357" y="952.338" transform="matrix(0.7071 -0.7071 0.7071 0.7071 -551.4144 683.8746)" fill="#FFFFFF" width="106.876" height="110.419"/>
<path fill="#FFFFFF" d="M366.292,1112.951c-25.1,25.064-31.989,63.081-17.28,95.358c4.147,9.454,10.005,18.06,17.28,25.387
	c24.254,24.187,60.604,31.566,92.371,18.752c-10.625-4.272-20.277-10.649-28.372-18.752c-7.275-7.325-13.132-15.933-17.28-25.387
	c-14.709-32.277-7.82-70.294,17.28-95.358l106.665-106.665l176.398-176.398C605.701,678.479,588.539,480.626,668.515,312.94
	C748.49,145.254,913.041,34.069,1098.454,22.432c-10.529-0.647-21.114-1.083-31.807-1.083c-10.88,0-21.547,0.427-31.999,1.067
	c-185.453,11.57-350.072,122.734-430.093,290.436s-62.873,365.597,44.799,517.035l-176.398,176.401L366.292,1112.951z"/>
<path fill="#FFFFFF" d="M533.327,533.338c0.59-192.086,103.995-369.149,271.007-464.044
	c80.158-44.939,170.421-68.776,262.313-69.276v42.667c-84.525,0.498-167.543,22.424-241.287,63.736
	c-153.639,87.32-248.779,250.202-249.366,426.92h-42.667V533.338z"/>
<path fill="#428DFF" d="M569.06,382.096c0.994,0.95,2.127,1.745,3.357,2.357c1.284,0.638,2.612,1.186,3.972,1.641
	c8.178,2.367,16.99-0.13,22.71-6.438c5.665-6.112,7.05-15.053,3.497-22.592c-1.274-2.498-2.989-4.745-5.058-6.638
	c-2.015-1.945-4.382-3.49-6.972-4.555c-5.272-2.015-11.128-1.86-16.285,0.43c-5.17,2.675-9.162,7.173-11.204,12.622
	c-1.953,5.423-1.775,11.383,0.5,16.678l2.3,3.465C566.797,380.216,567.866,381.233,569.06,382.096z"/>
<path fill="#428DFF" d="M1066.647,0.018c-91.896,0.5-182.156,24.339-262.313,69.276c-79.964,45.294-146.854,110.498-194.176,189.278
	l-11.52,19.002c-2.698,5.125-3.232,11.115-1.485,16.637c1.748,5.52,5.635,10.113,10.79,12.75
	c10.232,5.165,22.717,1.218,28.116-8.892l10.633-17.46c43.534-72.501,105.082-132.507,178.666-174.188
	c73.745-41.309,156.764-63.238,241.286-63.736c270.981,0,490.656,219.675,490.656,490.656
	c0,270.981-219.675,490.656-490.656,490.656c-270.98,0-490.653-219.678-490.653-490.658l2.08-40.857
	c1.013-13.589,2.763-27.114,5.237-40.514c1.28-11.462-6.284-22.05-17.544-24.549c-5.61-1.21-11.47,0-16.14,3.334
	c-4.67,3.335-7.72,8.482-8.397,14.18c-2.673,14.567-4.567,29.27-5.678,44.039l-2.225,44.367
	c-0.101,104.542,30.712,206.779,88.561,293.855l-88.479,88.476l-0.02,0.012l-0.013,0.021l-75.493,75.49l-0.013,0.008l-0.008,0.013
	l-106.657,106.652c-41.626,41.682-41.604,109.21,0.05,150.864c41.654,41.654,109.182,41.676,150.864,0.05l106.652-106.657
	l0.013-0.008l0.008-0.013l75.49-75.493l0.021-0.013l0.012-0.02l88.476-88.479c190.315,125.758,439.548,116.525,620.036-22.969
	s252.249-378.352,178.528-594.222C1497.632,145.037,1294.76-0.03,1066.647,0.018z M593.698,1096.861l-90.577-90.575l45.354-45.354
	l90.575,90.575L593.698,1096.861z M471.954,1218.614c-25.375,24.124-65.206,24.124-90.581,0c-24.957-25.037-24.957-65.546,0-90.581
	l91.583-91.58l90.581,90.58L471.954,1218.614z M669.214,1021.344l-90.572-90.573l68.594-68.593
	c26.474,33.691,56.881,64.096,90.57,90.57L669.214,1021.344z"/>
<path fill="#428DFF" d="M1066.647,981.327c247.417,0,447.989-200.573,447.989-447.989c0-247.417-200.572-447.99-447.989-447.99
	s-447.989,200.573-447.989,447.99C618.938,780.64,819.346,981.045,1066.647,981.327z M1066.647,128.015
	c223.854,0,405.323,181.471,405.323,405.323c0,223.852-181.471,405.322-405.323,405.322S661.324,757.189,661.324,533.338
	C661.577,309.588,842.897,128.267,1066.647,128.015z"/>
</svg>
