<?xml version="1.0" encoding="iso-8859-1"?>
<!-- Generator: Adobe Illustrator 19.0.0, SVG Export Plug-In . SVG Version: 6.00 Build 0)  -->
<svg version="1.1" id="Capa_1" xmlns="http://www.w3.org/2000/svg" xmlns:xlink="http://www.w3.org/1999/xlink" x="0px" y="0px"
	 viewBox="0 0 512.027 512.027" style="enable-background:new 0 0 512.027 512.027;" xml:space="preserve">
<g transform="translate(0 -1)">
	<g transform="translate(0 1)">
		<g>
			<path style="fill:#E3E7F2;" d="M452.28,247.494v-59.733H61.795l-0.085-0.085l-3.413-3.328c-1.645-1.534-3.81-2.388-6.059-2.389
				h-2.645l1.877,5.803h-0.256v59.733c0.014,4.707,3.826,8.519,8.533,8.533h8.533v161.195c-9.611-11.078-18.181-23.018-25.6-35.669
				C-21.354,272.795,6.697,133.274,107.79,57.717S350.636-5.234,436.808,86.979s89.162,234.493,6.939,330.243V256.027
				c2.794,0.002,5.41-1.37,6.997-3.669C451.733,250.927,452.268,249.233,452.28,247.494z"/>
			<path style="fill:#E3E7F2;" d="M452.28,187.761v59.733c-0.012,1.739-0.548,3.433-1.536,4.864c-1.587,2.3-4.203,3.672-6.997,3.669
				v161.195c-7.858,9.209-16.417,17.797-25.6,25.685c-11.335,9.96-23.593,18.817-36.608,26.453
				c-103.251,60.863-235.288,38.887-313.259-52.139V256.027h-8.533c-4.707-0.014-8.519-3.826-8.533-8.533v-59.733h0.256
				l-1.877-5.803h2.645c2.249,0.001,4.414,0.855,6.059,2.389l3.413,3.328l0.085,0.085H452.28z"/>
		</g>
		<path style="fill:#7FABFA;" d="M443.747,256.027v196.267c-0.028,9.414-7.652,17.039-17.067,17.067H85.347
			c-9.414-0.028-17.039-7.652-17.067-17.067V256.027H443.747z"/>
		<path style="fill:#E3E7F2;" d="M418.147,256.027v196.267c-0.028,9.414-7.652,17.039-17.067,17.067H85.347
			c-9.414-0.028-17.039-7.652-17.067-17.067V256.027H418.147z"/>
		<path style="fill:#A4C2F7;" d="M452.28,187.761v59.733c-0.012,1.739-0.548,3.433-1.536,4.864c-1.587,2.3-4.203,3.672-6.997,3.669
			h-384c-4.707-0.014-8.519-3.826-8.533-8.533v-59.733H452.28z"/>
		<path style="fill:#D4E1F4;" d="M145.08,315.761h213.333c4.713,0,8.533,3.821,8.533,8.533v68.267c0,4.713-3.82,8.533-8.533,8.533
			H145.08c-4.713,0-8.533-3.82-8.533-8.533v-68.267C136.547,319.581,140.367,315.761,145.08,315.761z"/>
		<path style="fill:#A4C2F7;" d="M436.835,75.718l-8.619,2.56h-0.085l-55.979,16.725l-11.691,3.499l-0.085,0.085l-11.605,3.499
			h-0.085l-53.504,15.872l-11.691,3.499l-11.349,3.413l-54.187,16.213l-11.52,3.413h-0.085l-11.52,3.413h-0.085l-53.845,16.128
			l-11.605,3.499l-11.52,3.413h-0.085l-53.76,16.043l-2.219,0.683l-0.256,0.085l-9.131,2.731v-0.171l-0.853-2.56l-1.877-5.803
			l-0.853-2.816l-12.032-37.803l-2.133-6.656c-0.653-2.23-0.378-4.629,0.763-6.653c1.141-2.024,3.05-3.502,5.296-4.099l7.509-2.219
			l38.144-11.349l11.691-3.499l11.52-3.413h0.085l53.845-16.128l11.605-3.499l11.349-3.413h0.085l54.016-16.128l11.52-3.413
			l11.435-3.413l53.931-16.043h0.085l11.605-3.499l11.435-3.499h0.085l15.531-4.693h0.085l38.229-11.349h0.085l8.448-2.56
			l4.864-1.451c1.778-0.555,3.683-0.555,5.461,0l2.219,1.195v0.085c1.624,0.998,2.881,2.495,3.584,4.267L436.835,75.718z"/>
	</g>
	<g transform="translate(1 2)">
		<path style="fill:#FFFFFF;" d="M129.488,468.361c38.031,22.412,81.382,34.2,125.525,34.133c4.302,0,8.552-0.217,12.8-0.434
			c-39.746-1.96-78.425-13.523-112.725-33.7H129.488z"/>
		<path style="fill:#FFFFFF;" d="M414.501,14.558l-2.219-1.195c-1.778-0.555-3.683-0.555-5.461,0l-4.864,1.451l-8.448,2.56h-0.085
			l-23.33,6.926c3.596,1.395,7.15,2.869,10.664,4.423h0.037l36.651-10.881c-0.721-1.28-1.728-2.375-2.944-3.199V14.558z"/>
		<path style="fill:#FFFFFF;" d="M47.213,120.691l-0.072,0.021l-7.509,2.219c-2.246,0.597-4.155,2.074-5.296,4.099
			c-1.141,2.024-1.416,4.423-0.763,6.653l2.133,6.656l0.008,0.024C-3.862,216.096-1.608,306.879,41.68,380.553
			c7.419,12.651,15.989,24.591,25.6,35.669v35.072c0.028,9.414,7.653,17.039,17.067,17.067h25.6
			c-9.414-0.028-17.039-7.652-17.067-17.067v-35.072c-9.611-11.078-18.181-23.018-25.6-35.669
			c-43.288-73.673-45.542-164.457-5.966-240.188l-0.008-0.025l-2.133-6.656c-0.653-2.23-0.378-4.629,0.763-6.653
			c1.141-2.024,3.05-3.502,5.296-4.099l7.509-2.219l0.071-0.021C115.907,53.936,188.462,11.965,267.813,7.887
			c-4.24-0.216-8.506-0.324-12.8-0.327C171.024,7.516,92.76,50.125,47.213,120.691z"/>
	</g>
	<g>
		<path style="fill:#FFFFFF;" d="M44.263,146.305c-16.624,31.758-25.868,66.858-27.042,102.685l-0.141,8.037H0.013l0.15-8.6
			c1.26-38.398,11.169-76.017,28.988-110.054L44.263,146.305z"/>
		<g>
			<path style="fill:#428DFF;" d="M9.085,213.548c0.935,0.612,1.983,1.032,3.083,1.233c2.219,0.344,4.486-0.137,6.374-1.352
				c1.806-1.259,3.078-3.146,3.568-5.293c0.393-2.16-0.013-4.39-1.143-6.272l-1.017-1.27c-0.392-0.421-0.837-0.79-1.323-1.097
				c-0.416-0.35-0.881-0.637-1.38-0.853c-0.525-0.227-1.065-0.417-1.617-0.57c-2.205-0.514-4.524-0.145-6.461,1.029
				c-3.988,2.7-5.115,8.076-2.547,12.15C7.286,212.171,8.123,212.951,9.085,213.548z"/>
			<path style="fill:#428DFF;" d="M145.08,308.227c-9.422,0.009-17.057,7.645-17.067,17.067v68.267
				c0.009,9.422,7.645,17.057,17.067,17.067h213.333c9.422-0.009,17.057-7.645,17.067-17.067v-68.267
				c-0.009-9.422-7.645-17.057-17.067-17.067H145.08z M145.08,393.561v-68.267h213.333l0.012,68.267H145.08z"/>
			<path style="fill:#428DFF;" d="M444.376,80.715c1.07-2.027,1.284-4.398,0.592-6.583l-17.758-55.825
				C424.146,9.301,414.47,4.37,405.384,7.186l-48.769,14.51c-113.483-48.63-245.506-9.218-313.759,93.664l-4.705,1.405
				c-4.537,1.369-8.343,4.49-10.575,8.671c-2.097,3.955-2.504,8.59-1.129,12.85l1.095,3.441
				c-4.773,9.391-8.968,19.064-12.564,28.966c-0.8,2.152-0.688,4.536,0.309,6.604c0.997,2.068,2.793,3.64,4.975,4.355
				c4.404,1.412,9.142-0.872,10.781-5.197c1.279-3.558,2.754-7.042,4.199-10.536l7.439,23.372v59.203
				c0.009,9.422,7.645,17.057,17.067,17.067v127.497c-27.745-39.939-42.631-87.399-42.667-136.03l0.141-8.037l0.422-8.231
				c0.226-4.614-3.194-8.599-7.789-9.074c-2.287-0.222-4.566,0.498-6.31,1.995c-1.744,1.497-2.802,3.64-2.929,5.935l-0.451,8.813
				l-0.15,8.6c0.008,60.066,21.154,118.214,59.733,164.253v32.014c0.015,14.132,11.468,25.585,25.6,25.6h42.98
				c79.041,45.511,176.332,45.511,255.373,0h42.98c14.132-0.015,25.585-11.468,25.6-25.6V421.28
				c83.016-99.1,79.081-244.552-9.172-339.018C443.591,81.799,444.017,81.279,444.376,80.715z M426.059,70.998l-0.371,0.104
				l-47.792,14.284l33.329-61.026L426.059,70.998z M69.709,177.389l34.108-62.42l53.798-16.064l-34.108,62.423L69.709,177.389z
				 M392.923,197.294h50.824l0.012,49.251L392.923,197.294z M368.506,197.294c0.092,0.097,0.123,0.227,0.22,0.321l52.517,50.879
				h-56.129l-52.798-51.2H368.506z M287.91,197.294c0.092,0.097,0.123,0.227,0.22,0.321l52.467,50.879h-56.041l-52.867-51.2H287.91z
				 M207.269,197.294c0.093,0.099,0.125,0.23,0.223,0.325l52.532,50.875h-56.103l-52.802-51.2H207.269z M126.714,197.294
				c0.092,0.097,0.123,0.227,0.22,0.321l52.471,50.879h-56.042l-52.798-51.2H126.714z M59.747,248.494v-37.916l39.101,37.916H59.747
				z M50.14,130.999l0.208-0.063l30.231-9.027l-26.18,47.913l-9.568-30.086l-1.78-6.621L50.14,130.999z M180.853,91.966
				l53.823-16.072l-34.114,62.428l-53.818,16.068L180.853,91.966z M257.915,68.954l53.804-16.067l-34.064,62.463l-53.874,16.068
				L257.915,68.954z M334.942,45.953l23.092-6.896c0.2-0.046,0.4-0.096,0.596-0.154l30.092-8.95L354.62,92.396l-53.754,16.032
				L334.942,45.953z M256.013,18.094c25.024-0.05,49.898,3.868,73.695,11.607L69.926,107.276
				C115.163,50.794,183.649,17.972,256.013,18.094z M256.013,495.961c-30.326-0.029-60.37-5.821-88.533-17.067h177.067
				C316.384,490.14,286.339,495.932,256.013,495.961z M435.213,453.294c-0.006,4.71-3.823,8.527-8.533,8.533H85.347
				c-4.71-0.006-8.527-3.823-8.533-8.533V265.561h358.4V453.294z M452.28,393.057v-129.87c5.262-3.024,8.514-8.624,8.533-14.693
				v-59.733c0-4.713-3.821-8.533-8.533-8.533H119.867l11.595-3.462l0.139-0.042l76.658-22.888l0.045-0.012
				c0.155-0.037,0.305-0.074,0.458-0.119l0.118-0.031l153.929-45.909c0.296-0.09,0.586-0.196,0.87-0.317l62.039-18.545
				C506.803,170.597,517.977,298.545,452.28,393.057z"/>
		</g>
	</g>
</g>
<g>
</g>
<g>
</g>
<g>
</g>
<g>
</g>
<g>
</g>
<g>
</g>
<g>
</g>
<g>
</g>
<g>
</g>
<g>
</g>
<g>
</g>
<g>
</g>
<g>
</g>
<g>
</g>
<g>
</g>
</svg>
